<?xml version="1.0" encoding="UTF-8"?>
<svg xmlns="http://www.w3.org/2000/svg" xmlns:xlink="http://www.w3.org/1999/xlink" viewBox="0 0 453.69 423.66">
  <defs>
    <style>
      .cls-1 {
        fill: url(#linear-gradient);
      }

      .cls-1, .cls-2, .cls-3, .cls-4, .cls-5 {
        stroke-width: 0px;
      }

      .cls-6 {
        isolation: isolate;
      }

      .cls-2 {
        fill: url(#linear-gradient-2);
      }

      .cls-3 {
        fill: url(#linear-gradient-3);
      }

      .cls-4 {
        fill: url(#linear-gradient-5);
        mix-blend-mode: soft-light;
      }

      .cls-5 {
        fill: url(#linear-gradient-4);
        mix-blend-mode: multiply;
        opacity: .07;
      }
    </style>
    <linearGradient id="linear-gradient" x1="115.58" y1="448.46" x2="239.44" y2="-56.56" gradientUnits="userSpaceOnUse">
      <stop offset="0" stop-color="#ffed61"/>
      <stop offset="1" stop-color="#e07954"/>
    </linearGradient>
    <linearGradient id="linear-gradient-2" x1="384.52" y1="-63.64" x2="191.56" y2="507.81" xlink:href="#linear-gradient"/>
    <linearGradient id="linear-gradient-3" x1="28.17" y1="427.02" x2="152.02" y2="-78" xlink:href="#linear-gradient"/>
    <linearGradient id="linear-gradient-4" x1="132.99" y1="337.13" x2="113.59" y2="332.56" gradientUnits="userSpaceOnUse">
      <stop offset="0" stop-color="#fff"/>
      <stop offset="1" stop-color="#000"/>
    </linearGradient>
    <linearGradient id="linear-gradient-5" x1="37.12" y1="989.91" x2="289.14" y2="-37.69" gradientTransform="translate(216.13 -99.45) rotate(45)" xlink:href="#linear-gradient"/>
  </defs>
  <g class="cls-6">
    <g id="OBJECTS">
      <g>
        <g>
          <path class="cls-1" d="M219.52,0C150.95,0,89.74,31.46,49.48,80.71l109.11,47.33c17.44-11.64,38.39-18.44,60.93-18.44,26.86,0,51.46,9.65,70.55,25.65l77.65-77.65C328.67,21.84,276.65,0,219.52,0Z"/>
          <path class="cls-2" d="M382.37,42.21l-68.96,10.75-8.69,66.9c24.06,20.16,39.37,50.43,39.37,84.27,0,60.71-49.21,109.92-109.92,109.92-33.85,0-64.11-15.31-84.28-39.37l-77.65,77.65c40.14,43.83,97.81,71.32,161.93,71.32,121.24,0,219.52-98.28,219.52-219.52,0-64.11-27.5-121.79-71.32-161.93Z"/>
          <path class="cls-3" d="M0,219.52c0,57.13,21.84,109.15,57.6,148.2l72.22-6.11,5.43-71.54c-16-19.09-25.65-43.69-25.65-70.55,0-38.17,19.46-71.78,48.99-91.49l-109.11-47.33C18.56,118.54,0,166.86,0,219.52Z"/>
        </g>
        <path class="cls-5" d="M135.25,290.08l-5.43,71.54-44.57,3.77s25.46,27.07,68.39,43.02l38.94-102.5s-30.38-14.98-42.69-31.22l-14.64,15.39Z"/>
        <circle class="cls-4" cx="228.11" cy="211.17" r="147.72" transform="translate(-82.51 223.15) rotate(-45)"/>
      </g>
    </g>
  </g>
</svg>